<svg width="40" height="40" viewBox="0 0 40 40" fill="none" xmlns="http://www.w3.org/2000/svg">
<path d="M29.7248 35.8055C27.8039 37.6358 25.7066 37.3468 23.6877 36.4798C21.5512 35.5936 19.5911 35.555 17.337 36.4798C14.5144 37.6743 13.0247 37.3275 11.339 35.8055C1.77374 26.1145 3.18501 11.3565 14.044 10.817C16.6901 10.9519 18.5326 12.2427 20.0811 12.3583C22.394 11.8959 24.6089 10.5665 27.0787 10.7399C30.0384 10.9711 32.2729 12.1271 33.743 14.2079C27.6275 17.8107 29.078 25.7292 34.6839 27.9448C33.5666 30.8348 32.1161 33.7055 29.7052 35.8248L29.7248 35.8055ZM19.8851 10.7014C19.5911 6.40499 23.1389 2.85998 27.2159 2.51318C27.7843 7.48391 22.6292 11.1831 19.8851 10.7014Z" fill="#131313"/>
<path d="M29.7248 35.8055C27.8039 37.6358 25.7066 37.3468 23.6877 36.4798C21.5512 35.5936 19.5911 35.555 17.337 36.4798C14.5144 37.6743 13.0247 37.3275 11.339 35.8055C1.77374 26.1145 3.18501 11.3565 14.044 10.817C16.6901 10.9519 18.5326 12.2427 20.0811 12.3583C22.394 11.8959 24.6089 10.5665 27.0787 10.7399C30.0384 10.9711 32.2729 12.1271 33.743 14.2079C27.6275 17.8107 29.078 25.7292 34.6839 27.9448C33.5666 30.8348 32.1161 33.7055 29.7052 35.8248L29.7248 35.8055ZM19.8851 10.7014C19.5911 6.40499 23.1389 2.85998 27.2159 2.51318C27.7843 7.48391 22.6292 11.1831 19.8851 10.7014Z" fill="black" fill-opacity="0.2"/>
</svg>
