<svg width="17" height="29" viewBox="0 0 17 29" fill="none" xmlns="http://www.w3.org/2000/svg">
<path d="M6.72727 29V25.5361C5.12121 25.2139 3.73485 24.5963 2.56818 23.6833C1.40152 22.7704 0.545455 21.4815 0 19.8167L3.36364 18.6083C3.81818 19.8972 4.49242 20.8773 5.38636 21.5486C6.2803 22.2199 7.45455 22.5556 8.90909 22.5556C10.1515 22.5556 11.2045 22.3072 12.0682 21.8104C12.9318 21.3137 13.3636 20.5417 13.3636 19.4944C13.3636 18.5546 13.0303 17.8095 12.3636 17.259C11.697 16.7086 10.1515 16.0843 7.72727 15.3861C5.12121 14.6611 3.33333 13.7951 2.36364 12.7882C1.39394 11.7812 0.909091 10.5528 0.909091 9.10278C0.909091 7.35741 1.54545 6.00139 2.81818 5.03472C4.09091 4.06806 5.39394 3.51759 6.72727 3.38333V0H10.3636V3.38333C11.8788 3.59815 13.1288 4.08819 14.1136 4.85347C15.0985 5.61875 15.8182 6.55185 16.2727 7.65278L12.9091 8.94167C12.5455 8.08241 12.0303 7.43796 11.3636 7.00833C10.697 6.5787 9.78788 6.36389 8.63636 6.36389C7.30303 6.36389 6.28788 6.62569 5.59091 7.14931C4.89394 7.67292 4.54545 8.32407 4.54545 9.10278C4.54545 9.98889 5 10.687 5.90909 11.1972C6.81818 11.7074 8.39394 12.2444 10.6364 12.8083C12.7273 13.3454 14.3106 14.1979 15.3864 15.366C16.4621 16.534 17 17.8833 17 19.4139C17 21.3204 16.3636 22.7704 15.0909 23.7639C13.8182 24.7574 12.2424 25.375 10.3636 25.6167V29H6.72727Z" fill="#FFB028"/>
</svg>
