<svg width="45" height="49" viewBox="0 0 45 49" fill="none" xmlns="http://www.w3.org/2000/svg">
<path d="M19.6 42.6913V25.9088L4.9 17.395V34.1775L19.6 42.6913ZM24.5 42.6913L39.2 34.1775V17.395L24.5 25.9088V42.6913ZM19.6 48.3263L2.45 38.465C1.67417 38.0158 1.07188 37.4238 0.643125 36.6888C0.214375 35.9538 0 35.1371 0 34.2388V14.7613C0 13.8629 0.214375 13.0463 0.643125 12.3113C1.07188 11.5763 1.67417 10.9842 2.45 10.535L19.6 0.67375C20.3758 0.224583 21.1925 0 22.05 0C22.9075 0 23.7242 0.224583 24.5 0.67375L41.65 10.535C42.4258 10.9842 43.0281 11.5763 43.4569 12.3113C43.8856 13.0463 44.1 13.8629 44.1 14.7613V34.2388C44.1 35.1371 43.8856 35.9538 43.4569 36.6888C43.0281 37.4238 42.4258 38.0158 41.65 38.465L24.5 48.3263C23.7242 48.7754 22.9075 49 22.05 49C21.1925 49 20.3758 48.7754 19.6 48.3263ZM31.85 15.9863L36.5662 13.2913L22.05 4.9L17.2725 7.65625L31.85 15.9863ZM22.05 21.6825L26.8275 18.9263L12.3113 10.535L7.53375 13.2913L22.05 21.6825Z" fill="#EA580C"/>
</svg>
