<svg width="96" height="96" viewBox="0 0 96 96" fill="none" xmlns="http://www.w3.org/2000/svg">
<rect x="0.75" y="0.75" width="94.5" height="94.5" rx="47.25" fill="#FFF7ED"/>
<rect x="0.75" y="0.75" width="94.5" height="94.5" rx="47.25" stroke="#FFEDD5" stroke-width="1.5"/>
<g clip-path="url(#clip0_126_4362)">
<path fill-rule="evenodd" clip-rule="evenodd" d="M47.9536 28.3573C46.4606 28.3304 44.9769 28.5981 43.5875 29.1452C42.1981 29.6922 40.9303 30.5079 39.8565 31.5456C38.7827 32.5832 37.9241 33.8224 37.3297 35.1923C36.7354 36.5621 36.417 38.0357 36.3929 39.5288V55.143C36.3929 56.0902 36.0166 56.9987 35.3468 57.6684C34.677 58.3382 33.7686 58.7145 32.8214 58.7145H28.3571C26.9363 58.7145 25.5737 58.1501 24.5691 57.1454C23.5644 56.1408 23 54.7781 23 53.3573V46.2145C23 44.7937 23.5644 43.4311 24.5691 42.4264C25.5737 41.4217 26.9363 40.8573 28.3571 40.8573H31.0357V39.4645C31.0683 37.2695 31.533 35.1023 32.4032 33.0869C33.2734 31.0715 34.5321 29.2473 36.1075 27.7184C37.6828 26.1895 39.5439 24.9859 41.5844 24.1763C43.6249 23.3668 45.805 22.9671 48 23.0002C50.195 22.9671 52.375 23.3668 54.4156 24.1763C56.4561 24.9859 58.3172 26.1895 59.8925 27.7184C61.4679 29.2473 62.7266 31.0715 63.5968 33.0869C64.467 35.1023 64.9317 37.2695 64.9643 39.4645V40.8573H67.6429C69.0637 40.8573 70.4263 41.4217 71.4309 42.4264C72.4356 43.4311 73 44.7937 73 46.2145V53.3573C73 54.7781 72.4356 56.1408 71.4309 57.1454C70.4263 58.1501 69.0637 58.7145 67.6429 58.7145H64.9643V60.5002C64.9647 62.9136 64.0766 65.2427 62.4693 67.043C60.862 68.8434 58.648 69.9888 56.25 70.2609C55.7843 71.0924 55.1052 71.7846 54.2828 72.2661C53.4604 72.7476 52.5244 73.001 51.5714 73.0002H46.2143C44.7935 73.0002 43.4309 72.4358 42.4262 71.4311C41.4216 70.4265 40.8571 69.0639 40.8571 67.6431C40.8571 66.2222 41.4216 64.8596 42.4262 63.855C43.4309 62.8503 44.7935 62.2859 46.2143 62.2859H51.5714C53.5071 62.2859 55.2036 63.3109 56.1429 64.8502C57.1272 64.6239 58.0058 64.0706 58.635 63.2805C59.2642 62.4904 59.6069 61.5102 59.6071 60.5002V39.5252C59.5826 38.0245 59.2609 36.5435 58.6606 35.1679C58.0602 33.7923 57.1932 32.5493 56.1095 31.5108C55.0259 30.4723 53.7471 29.6589 52.3472 29.1176C50.9473 28.5764 49.454 28.318 47.9536 28.3573Z" fill="#FFB028"/>
</g>
<defs>
<clipPath id="clip0_126_4362">
<rect width="50" height="50" fill="white" transform="translate(23 23)"/>
</clipPath>
</defs>
</svg>
